<svg xmlns="http://www.w3.org/2000/svg"  viewBox="0 0 64 64" width="64px" height="64px"><linearGradient id="VtgpHyLpOmfDwWf024j9Pa" x1="26.023" x2="26.023" y1="19.667" y2="43.002" gradientUnits="userSpaceOnUse" spreadMethod="reflect"><stop offset="0" stop-color="#6dc7ff"/><stop offset="1" stop-color="#e6abff"/></linearGradient><path fill="url(#VtgpHyLpOmfDwWf024j9Pa)" fill-rule="evenodd" d="M35.925,30c0.68,5-1.371,12.17-9.761,12.17 C20.55,42.17,16,37.616,16,32.003c0-5.613,4.55-10.165,10.164-10.165c2.634,0,5.034,1.001,6.839,2.645 c-2.127,2.009-2.057,2.127-2.893,2.963c-1.044-0.864-2.183-1.484-3.946-1.484c-3.335,0-5.937,2.703-5.937,6.038 c0,3.335,2.603,6.038,5.937,6.038c3.295,0,4.552-1.421,5.413-4.03c-1.59,0-5.576,0.005-5.576,0.005V30C26,30,33.938,30,35.925,30z" clip-rule="evenodd"/><linearGradient id="VtgpHyLpOmfDwWf024j9Pb" x1="32" x2="32" y1="4.667" y2="59.169" gradientUnits="userSpaceOnUse" spreadMethod="reflect"><stop offset="0" stop-color="#1a6dff"/><stop offset="1" stop-color="#c822ff"/></linearGradient><path fill="url(#VtgpHyLpOmfDwWf024j9Pb)" d="M32,58C17.663,58,6,46.337,6,32S17.663,6,32,6s26,11.663,26,26S46.337,58,32,58z M32,8 C18.767,8,8,18.767,8,32s10.767,24,24,24s24-10.767,24-24S45.233,8,32,8z"/><linearGradient id="VtgpHyLpOmfDwWf024j9Pc" x1="43.5" x2="43.5" y1="25.333" y2="37.375" gradientUnits="userSpaceOnUse" spreadMethod="reflect"><stop offset="0" stop-color="#6dc7ff"/><stop offset="1" stop-color="#e6abff"/></linearGradient><path fill="url(#VtgpHyLpOmfDwWf024j9Pc)" fill-rule="evenodd" d="M48 30L45 30 45 27 42 27 42 30 39 30 39 33 42 33 42 36 45 36 45 33 48 33z" clip-rule="evenodd"/></svg>